<svg xmlns="http://www.w3.org/2000/svg" width="300" height="300" viewBox="0 0 300 300">
  <defs>
    <linearGradient id="successGradient" x1="0%" y1="0%" x2="100%" y2="100%">
      <stop offset="0%" style="stop-color:#10b981;stop-opacity:1" />
      <stop offset="100%" style="stop-color:#059669;stop-opacity:1" />
    </linearGradient>
    <linearGradient id="qrGradient" x1="0%" y1="0%" x2="100%" y2="100%">
      <stop offset="0%" style="stop-color:#1f2937;stop-opacity:1" />
      <stop offset="100%" style="stop-color:#374151;stop-opacity:1" />
    </linearGradient>
  </defs>
  
  <!-- Background circle -->
  <circle cx="150" cy="150" r="120" fill="url(#successGradient)" opacity="0.1"/>
  
  <!-- Success checkmark circle -->
  <circle cx="150" cy="120" r="40" fill="url(#successGradient)"/>
  <path d="M135 120 L145 130 L165 110" stroke="white" stroke-width="4" fill="none" stroke-linecap="round" stroke-linejoin="round"/>
  
  <!-- QR Code representation -->
  <rect x="100" y="180" width="100" height="100" fill="white" stroke="#10b981" stroke-width="2"/>
  
  <!-- QR Code pattern -->
  <rect x="110" y="190" width="8" height="8" fill="#1f2937"/>
  <rect x="122" y="190" width="8" height="8" fill="#1f2937"/>
  <rect x="134" y="190" width="8" height="8" fill="#1f2937"/>
  <rect x="146" y="190" width="8" height="8" fill="#1f2937"/>
  <rect x="158" y="190" width="8" height="8" fill="#1f2937"/>
  <rect x="170" y="190" width="8" height="8" fill="#1f2937"/>
  <rect x="182" y="190" width="8" height="8" fill="#1f2937"/>
  
  <rect x="110" y="202" width="8" height="8" fill="#1f2937"/>
  <rect x="134" y="202" width="8" height="8" fill="#1f2937"/>
  <rect x="158" y="202" width="8" height="8" fill="#1f2937"/>
  <rect x="182" y="202" width="8" height="8" fill="#1f2937"/>
  
  <rect x="110" y="214" width="8" height="8" fill="#1f2937"/>
  <rect x="122" y="214" width="8" height="8" fill="#1f2937"/>
  <rect x="134" y="214" width="8" height="8" fill="#1f2937"/>
  <rect x="146" y="214" width="8" height="8" fill="#1f2937"/>
  <rect x="158" y="214" width="8" height="8" fill="#1f2937"/>
  <rect x="170" y="214" width="8" height="8" fill="#1f2937"/>
  <rect x="182" y="214" width="8" height="8" fill="#1f2937"/>
  
  <rect x="110" y="226" width="8" height="8" fill="#1f2937"/>
  <rect x="134" y="226" width="8" height="8" fill="#1f2937"/>
  <rect x="158" y="226" width="8" height="8" fill="#1f2937"/>
  <rect x="182" y="226" width="8" height="8" fill="#1f2937"/>
  
  <rect x="110" y="238" width="8" height="8" fill="#1f2937"/>
  <rect x="122" y="238" width="8" height="8" fill="#1f2937"/>
  <rect x="134" y="238" width="8" height="8" fill="#1f2937"/>
  <rect x="146" y="238" width="8" height="8" fill="#1f2937"/>
  <rect x="158" y="238" width="8" height="8" fill="#1f2937"/>
  <rect x="170" y="238" width="8" height="8" fill="#1f2937"/>
  <rect x="182" y="238" width="8" height="8" fill="#1f2937"/>
  
  <!-- QR Code corner markers -->
  <rect x="110" y="190" width="20" height="20" fill="none" stroke="#10b981" stroke-width="2"/>
  <rect x="170" y="190" width="20" height="20" fill="none" stroke="#10b981" stroke-width="2"/>
  <rect x="110" y="250" width="20" height="20" fill="none" stroke="#10b981" stroke-width="2"/>
  
  <!-- Decorative elements -->
  <circle cx="100" cy="100" r="4" fill="#10b981" opacity="0.3"/>
  <circle cx="200" cy="100" r="4" fill="#10b981" opacity="0.3"/>
  <circle cx="100" cy="200" r="4" fill="#10b981" opacity="0.3"/>
  <circle cx="200" cy="200" r="4" fill="#10b981" opacity="0.3"/>
  
  <!-- Celebration dots -->
  <circle cx="80" cy="80" r="2" fill="#10b981" opacity="0.5"/>
  <circle cx="220" cy="80" r="2" fill="#10b981" opacity="0.5"/>
  <circle cx="80" cy="220" r="2" fill="#10b981" opacity="0.5"/>
  <circle cx="220" cy="220" r="2" fill="#10b981" opacity="0.5"/>
</svg> 