<?xml version="1.0" encoding="UTF-8"?>
<svg width="120" height="40" viewBox="0 0 120 40" fill="none" xmlns="http://www.w3.org/2000/svg">
  <path d="M40.5 20C40.5 15.5 38.5 11.5 35 9C31.5 6.5 27 5 22.5 5C13.5 5 6 12.5 6 20C6 27.5 13.5 35 22.5 35C27 35 31.5 33.5 35 31C38.5 28.5 40.5 24.5 40.5 20Z" fill="#4285F4"/>
  <path d="M22.5 35C27 35 31.5 33.5 35 31C38.5 28.5 40.5 24.5 40.5 20C40.5 15.5 38.5 11.5 35 9C31.5 6.5 27 5 22.5 5C13.5 5 6 12.5 6 20C6 27.5 13.5 35 22.5 35Z" stroke="#4285F4" stroke-width="2"/>
  <path d="M22.5 15C24.5 15 26 16.5 26 18.5C26 20.5 24.5 22 22.5 22C20.5 22 19 20.5 19 18.5C19 16.5 20.5 15 22.5 15Z" fill="#4285F4"/>
</svg> 